<svg width="35" height="43" viewBox="0 0 35 43" fill="none" xmlns="http://www.w3.org/2000/svg">
  <g opacity="0.5">
    <path d="M16.9879 42L17.8232 41.0844C18.4076 40.4441 32.1305 25.2929 32.0831 15.3801C32.0454 7.38245 25.2857 0.875 17.0137 0.875C8.70403 0.875 1.94434 7.38342 1.94434 15.384C1.94434 25.2929 15.5757 40.4412 16.1558 41.0806L16.9879 42ZM17.0137 2.80657C24.1039 2.80657 29.898 8.45061 29.9303 15.3888C29.968 23.2677 19.9845 35.4414 16.9933 38.9095C14.0181 35.4375 4.0971 23.2648 4.0971 15.384C4.0971 8.44868 9.89128 2.80657 17.0137 2.80657Z" fill="white" stroke="white" stroke-width="0.5" />
    <path fill-rule="evenodd" clip-rule="evenodd" d="M17.8864 7.81524C18.1601 8.5185 18.2312 9.25101 18.2301 10.0031C18.2258 11.3413 17.9849 12.6502 17.6664 13.9492C17.661 13.9785 17.6456 14.0078 17.627 14.0566C17.5887 13.9785 17.893 11.6343 17.8405 10.511C17.8033 9.72964 17.6894 8.94823 17.3359 8.21567C16.9057 7.31706 16.1395 6.82872 15.0723 6.69197C14.0587 6.55523 12.9532 6.67245 12.0009 7.00455L11.9517 7.01428C12.7485 6.57474 13.3429 6.24264 14.5589 6.1352C15.1358 6.08636 15.9852 6.10586 16.6342 6.43796C17.2833 6.77005 17.7332 7.41477 17.8864 7.81524Z" fill="white" stroke="white" stroke-width="0.3" />
    <path fill-rule="evenodd" clip-rule="evenodd" d="M9.52172 10.0652C9.52172 10.0652 9.56976 10.4841 9.60143 10.6888C9.76085 11.7411 10.2129 12.6863 10.8889 13.5438C11.7974 14.7034 12.9898 15.5609 14.3842 16.2138C15.0482 16.5256 15.7001 16.8472 16.3542 17.1785C16.4797 17.237 16.531 17.2174 16.602 17.12C17.4057 15.9312 18.2094 14.7521 19.024 13.5828C19.808 12.4428 20.7864 11.4683 22.0356 10.7278C22.7465 10.3088 23.4104 10.0456 24.2611 9.90922C24.3976 9.88973 24.6564 9.88001 24.7022 9.88001C24.7535 9.88001 24.6083 9.88001 24.7022 9.88001C24.4565 9.96771 24.2469 10.0262 24.0492 10.1139C22.9988 10.5914 22.1481 11.2929 21.351 12.053C20.5331 12.8325 19.9052 13.729 19.3112 14.6547C18.6844 15.6194 18.0456 16.5743 17.4068 17.539C17.3314 17.6559 17.3358 17.695 17.4734 17.7632C18.252 18.1529 19.024 18.5524 19.7218 19.0493C20.1596 19.3709 20.5648 19.712 20.8454 20.1602C21.1653 20.6669 21.1872 21.1834 20.8574 21.7193C20.8782 20.969 20.3234 20.55 19.7938 20.131C19.1168 19.5951 18.3426 19.176 17.5619 18.7765C17.3598 18.6693 17.1535 18.5719 16.9525 18.4647C16.8706 18.416 16.8204 18.416 16.7615 18.494C15.023 20.8911 12.4788 22.1578 9.42125 22.7132C9.13079 22.7717 8.83596 22.801 8.54113 22.8302C8.25504 22.8692 7.96567 22.8789 7.68066 22.8789C7.68066 22.8789 8.00716 22.7911 8.17314 22.7522C9.78379 22.3526 11.2754 21.7193 12.672 20.9105C13.6941 20.3161 14.6168 19.6243 15.3845 18.7668C15.5865 18.5524 15.771 18.3185 15.9468 18.0749C16.0102 17.9872 15.9971 17.958 15.8977 17.9093C15.1475 17.5293 14.4039 17.1492 13.6526 16.7789C12.1763 16.0579 11.0614 15.0055 10.2282 13.7095C9.74775 12.9592 9.42889 12.1602 9.35246 11.2832C9.33171 11.0591 9.33827 10.7277 9.39287 10.4452C9.43 10.2698 9.52172 10.0652 9.52172 10.0652Z" fill="white" />
    <path d="M24.7022 9.88001C24.6564 9.88001 24.3976 9.88973 24.2611 9.90922C23.4104 10.0456 22.7465 10.3088 22.0356 10.7278C20.7864 11.4683 19.808 12.4428 19.024 13.5828C18.2094 14.7521 17.4057 15.9312 16.602 17.12C16.531 17.2174 16.4797 17.237 16.3542 17.1785C15.7001 16.8472 15.0482 16.5256 14.3842 16.2138C12.9898 15.5609 11.7974 14.7034 10.8889 13.5438C10.2129 12.6863 9.76085 11.7411 9.60143 10.6888C9.56976 10.4841 9.52172 10.0652 9.52172 10.0652C9.52172 10.0652 9.43 10.2698 9.39287 10.4452C9.33827 10.7277 9.33171 11.0591 9.35246 11.2832C9.42889 12.1602 9.74775 12.9592 10.2282 13.7095C11.0614 15.0055 12.1763 16.0579 13.6526 16.7789C14.4039 17.1492 15.1475 17.5293 15.8977 17.9093C15.9971 17.958 16.0102 17.9872 15.9468 18.0749C15.771 18.3185 15.5865 18.5524 15.3845 18.7668C14.6168 19.6243 13.6941 20.3161 12.672 20.9105C11.2754 21.7193 9.78379 22.3526 8.17314 22.7522C8.00716 22.7911 7.68066 22.8789 7.68066 22.8789C7.96567 22.8789 8.25504 22.8692 8.54113 22.8302C8.83596 22.801 9.13079 22.7717 9.42125 22.7132C12.4788 22.1578 15.023 20.8911 16.7615 18.494C16.8204 18.416 16.8706 18.416 16.9525 18.4647C17.1535 18.5719 17.3598 18.6693 17.5619 18.7765C18.3426 19.176 19.1168 19.5951 19.7938 20.131C20.3234 20.55 20.8782 20.969 20.8574 21.7193C21.1872 21.1834 21.1653 20.6669 20.8454 20.1602C20.5648 19.712 20.1596 19.3709 19.7218 19.0493C19.024 18.5524 18.252 18.1529 17.4734 17.7632C17.3358 17.695 17.3314 17.6559 17.4068 17.539C18.0456 16.5743 18.6844 15.6194 19.3112 14.6547C19.9052 13.729 20.5331 12.8325 21.351 12.053C22.1481 11.2929 22.9988 10.5914 24.0492 10.1139C24.2469 10.0262 24.4565 9.96771 24.7022 9.88001ZM24.7022 9.88001C24.6083 9.88001 24.7535 9.88001 24.7022 9.88001Z" stroke="white" stroke-width="0.3" />
    <path fill-rule="evenodd" clip-rule="evenodd" d="M20.3319 16.0029C20.6261 15.9932 20.9694 16.0613 21.3182 16.0807C21.8806 16.1196 22.4027 16.0029 22.8495 15.7014C23.219 15.4388 23.4489 15.1081 23.3759 14.6607C23.3628 14.5829 23.3356 14.5051 23.2855 14.437C23.0021 14.0286 23.1797 13.5423 23.4544 13.2991C23.8032 12.9879 24.3481 12.9004 24.7841 13.1046C25.3214 13.3672 25.6113 13.7855 25.7257 14.3009C25.8587 14.9137 25.7235 15.4972 25.317 16.0029C25.0489 16.3433 24.6326 16.4503 24.2064 16.5281C23.5983 16.6351 22.9748 16.6934 22.383 16.8685C21.8076 17.0435 21.2768 17.3062 20.7417 17.5591C20.4659 17.6855 20.1956 17.8411 19.8774 17.88C19.4098 17.9383 19.0393 17.7924 18.8376 17.4715C18.6414 17.1603 18.709 16.7323 18.9924 16.4308C19.3313 16.071 19.7869 15.9932 20.3319 16.0029Z" fill="white" stroke="white" stroke-width="0.3" />
    <path fill-rule="evenodd" clip-rule="evenodd" d="M11.9329 11.4849C11.9569 10.4711 12.7205 9.62311 13.7484 9.42816C14.4574 9.29169 15.1194 9.68154 15.222 10.2957C15.281 10.6466 15.0888 11.0853 14.7392 11.212C14.0576 11.4654 13.921 12.1575 14.2236 12.7521C14.4639 13.2103 14.8659 13.532 15.3651 13.766C15.7595 13.9512 16.1549 14.1364 16.4564 14.4483C16.795 14.7895 16.8945 15.1891 16.7055 15.6083C16.4531 16.1834 15.7125 16.3199 15.1794 15.9007C15.0003 15.7642 14.8779 15.579 14.772 15.3938C14.5579 15.0234 14.346 14.6432 14.1242 14.2631C13.8194 13.7562 13.4032 13.3273 12.9455 12.9276C12.7096 12.7131 12.4747 12.5084 12.2716 12.2745C12.0607 12.0308 11.9165 11.7579 11.9329 11.4849Z" fill="white" stroke="white" stroke-width="0.3" />
    <path fill-rule="evenodd" clip-rule="evenodd" d="M20.2949 18.334C21.2512 18.334 22.213 18.2951 23.1672 18.149C24.3702 17.9736 25.5187 17.6619 26.5646 17.0774C27.5231 16.5415 28.0995 15.7817 28.3855 14.8172C28.6803 13.8235 28.6846 12.8396 28.237 11.8751C27.9685 11.3004 27.5558 10.8231 27.0318 10.4042C26.998 10.3847 26.8942 10.297 26.8604 10.2677C27.1399 10.3944 27.4346 10.5698 27.653 10.7451C28.3484 11.3102 28.7742 12.0213 28.9947 12.8201C29.2763 13.843 29.2239 14.8561 28.7458 15.8303C28.2938 16.7558 27.4772 17.3501 26.4739 17.7593C25.5274 18.1392 24.5209 18.3145 23.4903 18.3827C22.4958 18.4606 21.5023 18.4509 20.5089 18.3632C20.4379 18.3535 20.3659 18.3437 20.2949 18.334Z" fill="white" stroke="white" stroke-width="0.3" />
    <path fill-rule="evenodd" clip-rule="evenodd" d="M14.3165 17.7062C12.8147 17.7256 11.3325 17.8614 9.90462 18.3075C8.63756 18.705 7.54221 19.3257 6.73807 20.3148C6.51856 20.5766 6.35013 20.8674 6.21973 21.1777C6.23059 20.9256 6.31317 20.6832 6.42945 20.4505C6.95322 19.4226 7.8356 18.705 8.97226 18.2396C9.77966 17.9099 10.636 17.745 11.5151 17.6577C12.3649 17.5802 13.3994 17.6189 13.7438 17.6383C13.8297 17.648 14.3165 17.7062 14.3165 17.7062Z" fill="white" stroke="white" stroke-width="0.3" />
    <path fill-rule="evenodd" clip-rule="evenodd" d="M20.493 22.1192C20.493 22.1192 20.0775 22.4677 19.5514 22.6419C18.765 22.8936 17.9645 22.9807 17.1455 22.7871C16.4568 22.6322 16.063 22.2257 15.9643 21.6062C15.9036 21.219 15.9405 20.8318 16.0468 20.4446C16.037 20.7544 16.0674 21.0642 16.1986 21.3545C16.511 22.0515 17.1282 22.3805 17.933 22.4386C18.778 22.487 19.1946 22.4483 19.6816 22.3515C20.1697 22.245 20.493 22.1192 20.493 22.1192Z" fill="white" stroke="white" stroke-width="0.3" />
    <path fill-rule="evenodd" clip-rule="evenodd" d="M24.8407 11.334C24.4949 11.334 24.2221 11.5676 24.2199 11.8597C24.2188 12.1615 24.4818 12.405 24.8047 12.4147C25.1397 12.4147 25.4256 12.1713 25.4289 11.8792C25.431 11.5871 25.1648 11.3437 24.8407 11.334ZM23.958 11.8792C23.9548 11.441 24.3367 11.1003 24.8211 11.1003C25.3001 11.1003 25.6864 11.441 25.6875 11.8597C25.6907 12.2881 25.3143 12.6387 24.8407 12.6484C24.3519 12.6484 23.9591 12.3173 23.958 11.8792Z" fill="white" stroke="white" stroke-width="0.3" />
    <path fill-rule="evenodd" clip-rule="evenodd" d="M15.0358 8.94529C15.366 8.93554 15.6394 8.70134 15.6394 8.4086C15.6394 8.11586 15.3529 7.85243 15.0303 7.86218C14.7011 7.87194 14.4299 8.10614 14.4267 8.39888C14.4234 8.69162 14.7022 8.94529 15.0358 8.94529ZM15.8974 8.41832C15.8909 8.84768 15.5038 9.17947 15.0117 9.16971C14.5382 9.16971 14.1642 8.81842 14.1675 8.38906C14.1719 7.96947 14.559 7.62795 15.0358 7.62795C15.5235 7.63771 15.9029 7.97921 15.8974 8.41832Z" fill="white" stroke="white" stroke-width="0.3" />
    <path fill-rule="evenodd" clip-rule="evenodd" d="M26.3462 12.2825C26.6144 12.2825 26.8347 12.4868 26.8281 12.7301C26.8238 12.9636 26.6068 13.1485 26.3429 13.1582C26.0791 13.1582 25.8523 12.9539 25.8501 12.7204C25.8479 12.4771 26.0736 12.2825 26.3462 12.2825Z" fill="white" stroke="white" stroke-width="0.3" />
    <path fill-rule="evenodd" clip-rule="evenodd" d="M13.7301 8.29694C13.7323 8.54086 13.5125 8.74575 13.2425 8.73599C12.9735 8.73599 12.7614 8.5409 12.7647 8.28722C12.7669 8.05306 12.9899 7.85785 13.2633 7.86761C13.5235 7.86761 13.7301 8.06278 13.7301 8.29694Z" fill="white" stroke="white" stroke-width="0.3" />
    <path fill-rule="evenodd" clip-rule="evenodd" d="M12.5468 8.86916C12.5457 9.0447 12.3686 9.20072 12.1752 9.19097C11.9752 9.19097 11.8036 9.03489 11.8113 8.85935C11.8189 8.6838 11.9861 8.53753 12.1752 8.53753C12.3763 8.53753 12.5501 8.69361 12.5468 8.86916Z" fill="white" stroke="white" stroke-width="0.3" />
    <path fill-rule="evenodd" clip-rule="evenodd" d="M27.2061 13.73C27.2082 13.905 27.035 14.0605 26.8378 14.0605C26.646 14.0605 26.475 13.9147 26.4684 13.7494C26.4619 13.5744 26.633 13.4091 26.8302 13.4091C27.0252 13.3994 27.2028 13.555 27.2061 13.73Z" fill="white" stroke="white" stroke-width="0.3" />
    <path fill-rule="evenodd" clip-rule="evenodd" d="M26.7807 14.36C26.9538 14.36 27.1074 14.5057 27.1095 14.6515C27.1117 14.8167 26.9527 14.9624 26.7709 14.9527C26.5945 14.9527 26.4486 14.8166 26.4453 14.6612C26.4442 14.496 26.5956 14.36 26.7807 14.36Z" fill="white" stroke="white" stroke-width="0.3" />
    <path fill-rule="evenodd" clip-rule="evenodd" d="M11.9545 9.64458C11.9545 9.81029 11.8147 9.93701 11.6323 9.93701C11.4444 9.94676 11.2882 9.81029 11.2926 9.64458C11.2969 9.48862 11.4488 9.35216 11.6279 9.35216C11.8092 9.35216 11.9545 9.48862 11.9545 9.64458Z" fill="white" stroke="white" stroke-width="0.3" />
    <path fill-rule="evenodd" clip-rule="evenodd" d="M11.6657 10.4844C11.6635 10.6305 11.5379 10.7475 11.3731 10.7377C11.1973 10.7377 11.0728 10.6305 11.0783 10.4747C11.0827 10.3285 11.2246 10.2116 11.3774 10.2213C11.5336 10.2213 11.6678 10.348 11.6657 10.4844Z" fill="white" stroke="white" stroke-width="0.3" />
    <path fill-rule="evenodd" clip-rule="evenodd" d="M26.4444 15.206C26.6033 15.206 26.7394 15.3323 26.7394 15.4682C26.7383 15.6042 26.6023 15.7305 26.4444 15.7305C26.2736 15.7305 26.1452 15.6139 26.1495 15.4585C26.1528 15.3128 26.2779 15.206 26.4444 15.206Z" fill="white" stroke="white" stroke-width="0.3" />
  </g>
</svg>